<!DOCTYPE svg PUBLIC "-//W3C//DTD SVG 1.1//EN" "http://www.w3.org/Graphics/SVG/1.1/DTD/svg11.dtd" [
	<!ENTITY ns_flows "http://ns.adobe.com/Flows/1.0/">
]><svg xmlns="http://www.w3.org/2000/svg" width="68" height="145" viewBox="0 0 68 145" overflow="visible"><radialGradient id="a" cx="35.535" cy="15.693" r="94.461" gradientTransform="matrix(-.007 1 -1.6365 -.0115 61.467 -19.66)" gradientUnits="userSpaceOnUse"><stop offset="0" stop-color="#7f3f98"/><stop offset="1" stop-color="#7f3f98"/></radialGradient><path fill="url(#a)" d="M65.014 29.912L5.4.445C2.463-1.008 0 1.213 0 5.453V138.53c0 4.24 2.462 6.72 5.4 5.577l59.614-23.184c1.146-.445 2.057-2.865 2.057-5.414V35.54c0-2.548-.91-5.064-2.056-5.63zm-4.06 51.29c0 2.587-1.146 4.735-2.59 4.804l-17.41.818v15.803l6.74-1.155V112.695l-5.566 1.474-15.723 4.16-11.128 2.942v-14.246l6.564-1.123V37.732l-6.563-1.935V16.802l11.125 4.664h.003l31.958 13.398c1.445.605 2.59 3.18 2.59 5.767v40.573z"/><radialGradient id="b" cx="44.383" cy="55.801" r="15.163" gradientUnits="userSpaceOnUse"><stop offset="0" stop-color="#7f3f98"/><stop offset="1" stop-color="#7f3f98"/></radialGradient><path fill="url(#b)" d="M52.605 42.156L36.82 37.01c-1.43-.465-2.61 1.023-2.61 3.334V69.64c0 2.312 1.18 4.24 2.61 4.306l15.785.73c1.086.05 1.95-1.5 1.95-3.463V60.555l-6.06-1.034v3.742l-6.743-.94V50.47l6.742 1.57v3.74l6.062 1.223V46.345c0-1.962-.865-3.835-1.95-4.19z"/></svg>